<?xml version="1.0" encoding="UTF-8" standalone="no"?>
<!-- Created with Inkscape (http://www.inkscape.org/) -->

<svg
   version="1.1"
   id="svg1189"
   width="603.20599"
   height="91.009575"
   viewBox="0 0 603.206 91.009575"
   xmlns="http://www.w3.org/2000/svg"
   xmlns:svg="http://www.w3.org/2000/svg">
  <defs
     id="defs1193" />
  <g
     id="g1197"
     transform="matrix(1.3333333,0,0,1.3333333,-0.00201133,0.00109565)">
    <g
       id="g1199">
      <text
         xml:space="preserve"
         transform="translate(219.54998,58.810626)"
         style="font-variant:normal;font-weight:bold;font-size:13px;font-family:'Libre Baskerville';-inkscape-font-specification:LibreBaskerville-Bold;writing-mode:lr-tb;fill:#ffffff;fill-opacity:1;fill-rule:nonzero;stroke:none"
         id="text1203"><tspan
           x="0 11.946988 19.551981 23.009977 27.624973 30.39397 35.086964"
           y="0"
           id="tspan1201">De l'in</tspan></text>
      <text
         xml:space="preserve"
         transform="translate(264.08793,58.810626)"
         style="font-variant:normal;font-weight:bold;font-size:13px;font-family:'Libre Baskerville';-inkscape-font-specification:LibreBaskerville-Bold;writing-mode:lr-tb;fill:#ffffff;fill-opacity:1;fill-rule:nonzero;stroke:none"
         id="text1207"><tspan
           x="0"
           y="0"
           id="tspan1205">ﬁ</tspan></text>
      <text
         xml:space="preserve"
         transform="translate(273.08392,58.810626)"
         style="font-variant:normal;font-weight:bold;font-size:13px;font-family:'Libre Baskerville';-inkscape-font-specification:LibreBaskerville-Bold;writing-mode:lr-tb;fill:#ffffff;fill-opacity:1;fill-rule:nonzero;stroke:none"
         id="text1211"><tspan
           x="0 9.4509907 14.143986 28.521971 36.126965 45.577953 50.543949 54.001945 63.062939 70.667931 75.633926 80.32692 85.292915 88.750908 96.212906 105.42989 113.68488 117.14288 123.20087 131.78087 146.15886 160.53683 168.14183 173.10783"
           y="0"
           id="tspan1209">niment petit aux sommets</tspan></text>
      <path
         d="m 136.949,39.84 v -1.918 c 1.535,-0.164 2.703,-0.5 3.504,-1.008 0.801,-0.543 1.473,-1.504 2.016,-2.883 L 155.094,2.398 h 3.551 l 11.472,28.036 c 0.672,1.632 1.25,2.925 1.727,3.886 0.48,0.93 0.976,1.633 1.488,2.114 0.512,0.48 1.106,0.816 1.777,1.007 0.703,0.192 1.602,0.336 2.688,0.434 v 1.969 h -18.145 v -1.969 c 1.536,-0.066 2.641,-0.227 3.313,-0.48 0.672,-0.254 1.008,-0.766 1.008,-1.536 0,-0.445 -0.11,-1.023 -0.336,-1.726 -0.223,-0.738 -0.528,-1.602 -0.91,-2.594 l -1.106,-2.879 h -13.582 c -1.504,3.391 -2.258,5.742 -2.258,7.055 0,0.961 0.352,1.566 1.055,1.824 0.738,0.258 1.824,0.387 3.266,0.387 v 1.922 z m 12.192,-14.063 h 11.425 L 155.047,11.23 h -0.195 z"
         style="fill:#ffffff;fill-opacity:1;fill-rule:evenodd;stroke:none"
         id="path1213" />
      <path
         d="m 188.262,0 v 31.969 c 0,1.695 0.078,2.961 0.238,3.793 0.195,0.832 0.594,1.39 1.203,1.679 0.606,0.258 1.52,0.418 2.735,0.477 v 1.922 h -15.122 v -1.922 c 1.219,-0.066 2.129,-0.242 2.739,-0.531 0.605,-0.321 1.007,-0.864 1.199,-1.633 0.223,-0.801 0.336,-1.953 0.336,-3.457 V 12.473 c 0,-1.856 -0.031,-3.391 -0.098,-4.606 -0.062,-1.219 -0.14,-2.035 -0.238,-2.449 -0.16,-0.801 -0.527,-1.328 -1.106,-1.582 -0.543,-0.262 -1.55,-0.391 -3.023,-0.391 V 1.812 Z"
         style="fill:#ffffff;fill-opacity:1;fill-rule:evenodd;stroke:none"
         id="path1215" />
      <path
         d="m 194.355,66.84 v -2.016 c 1.153,-0.09 2.036,-0.234 2.641,-0.523 0.609,-0.289 1.008,-0.832 1.203,-1.633 0.223,-0.805 0.336,-16.969 0.336,-18.504 V 26.309 c 0,-1.473 -0.039,-2.879 -0.097,-4.227 -0.063,-1.344 -0.145,-2.27 -0.239,-2.781 -0.129,-0.742 -0.48,-1.25 -1.058,-1.535 -0.575,-0.289 -1.536,-0.434 -2.879,-0.434 v -1.875 l 9.648,-1.344 v 3.41 h 0.192 c 2.113,-2.402 4.863,-3.601 8.257,-3.601 2.496,0 4.688,0.578 6.575,1.726 1.921,1.122 3.425,2.672 4.511,4.657 1.09,1.984 1.633,4.257 1.633,6.816 0,2.527 -0.543,4.801 -1.633,6.817 -1.086,1.984 -2.574,3.554 -4.465,4.703 -1.886,1.121 -4.062,1.679 -6.527,1.679 -3.101,0 -5.473,-1.054 -7.101,-3.168 h -0.196 v 6.676 c 0,1.695 0.129,17.957 0.387,18.789 0.285,0.832 0.832,1.395 1.629,1.68 0.832,0.289 2.082,0.461 3.746,0.527 V 66.84 Z M 212.07,37.152 c 3.84,0 5.758,-3.312 5.758,-9.937 0,-7.039 -1.918,-10.559 -5.758,-10.559 -1.023,0 -2,0.227 -2.929,0.668 -0.926,0.442 -1.664,1.039 -2.207,1.778 -0.512,0.703 -0.93,1.617 -1.25,2.734 -0.286,1.121 -0.43,2.32 -0.43,3.602 v 3.261 c 0,2.274 0.558,4.211 1.68,5.809 1.214,1.762 2.929,2.64 5.136,2.64 z"
         style="fill:#ffffff;fill-opacity:1;fill-rule:evenodd;stroke:none"
         id="path1217" />
      <path
         d="m 229.828,13.922 -1.39,-2.02 c 2.398,-1.855 3.601,-3.613 3.601,-5.277 -0.129,0.059 -0.305,0.094 -0.527,0.098 -0.196,0.062 -0.371,0.089 -0.532,0.089 -0.734,0 -1.359,-0.289 -1.871,-0.867 -0.48,-0.605 -0.718,-1.343 -0.718,-2.207 0,-1.054 0.351,-1.937 1.054,-2.64 0.703,-0.703 1.586,-1.055 2.641,-1.055 1.121,0 2,0.414 2.641,1.246 0.64,0.801 0.961,1.891 0.961,3.266 0,3.328 -1.954,6.465 -5.856,9.41 z"
         style="fill:#ffffff;fill-opacity:1;fill-rule:evenodd;stroke:none"
         id="path1219" />
      <path
         d="m 240.727,39.84 -0.723,-12.238 h 1.875 c 0.445,3.007 1.664,5.39 3.648,7.152 2.016,1.758 4.461,2.637 7.344,2.637 2.399,0 4.336,-0.543 5.805,-1.629 1.472,-1.121 2.211,-2.563 2.211,-4.321 0,-1.023 -0.242,-1.89 -0.723,-2.593 -0.445,-0.703 -1.328,-1.391 -2.637,-2.063 -1.281,-0.703 -3.168,-1.519 -5.664,-2.449 -3.715,-1.406 -6.48,-3.07 -8.304,-4.992 -1.793,-1.953 -2.688,-4.207 -2.688,-6.766 0,-2.019 0.496,-3.777 1.484,-5.281 1.028,-1.535 2.418,-2.738 4.18,-3.602 1.789,-0.863 3.856,-1.297 6.192,-1.297 3.168,0 6.125,1.028 8.878,3.075 l 0.864,-2.399 h 1.152 l 0.527,10.367 h -1.871 c -0.769,-2.625 -1.968,-4.625 -3.601,-6 -1.633,-1.41 -3.52,-2.113 -5.664,-2.113 -1.95,0 -3.551,0.496 -4.801,1.488 -1.246,0.961 -1.871,2.207 -1.871,3.743 0,0.898 0.207,1.683 0.625,2.355 0.449,0.637 1.265,1.277 2.449,1.918 1.184,0.609 2.879,1.328 5.086,2.16 4.48,1.696 7.695,3.52 9.648,5.473 1.954,1.918 2.93,4.207 2.93,6.863 0,2.145 -0.609,4.047 -1.824,5.711 -1.219,1.664 -2.899,2.961 -5.039,3.891 -2.145,0.925 -4.625,1.39 -7.442,1.39 -1.886,0 -3.617,-0.258 -5.183,-0.769 -1.57,-0.539 -3.152,-1.406 -4.754,-2.59 l -0.957,2.879 z"
         style="fill:#ffffff;fill-opacity:1;fill-rule:evenodd;stroke:none"
         id="path1221" />
      <path
         d="m 293.332,34.031 1.25,1.824 c -1.184,1.411 -2.687,2.512 -4.512,3.313 -1.824,0.77 -3.808,1.152 -5.953,1.152 -2.59,0 -4.863,-0.543 -6.816,-1.632 -1.953,-1.122 -3.473,-2.657 -4.559,-4.606 -1.09,-1.984 -1.633,-4.258 -1.633,-6.816 0,-2.692 0.575,-5.028 1.727,-7.008 1.184,-2.016 2.816,-3.57 4.898,-4.656 2.078,-1.122 4.512,-1.68 7.297,-1.68 1.887,0 3.582,0.254 5.086,0.766 1.504,0.484 2.688,1.156 3.551,2.015 0.867,0.863 1.297,1.856 1.297,2.977 0,0.832 -0.254,1.535 -0.766,2.113 -0.511,0.543 -1.25,0.812 -2.211,0.812 -0.894,0 -1.597,-0.222 -2.109,-0.667 -0.481,-0.485 -0.961,-1.075 -1.441,-1.778 -0.575,-0.863 -1.055,-1.535 -1.442,-2.015 -0.351,-0.512 -0.703,-0.879 -1.055,-1.106 -0.351,-0.223 -0.847,-0.332 -1.488,-0.332 -1.887,0 -3.359,0.848 -4.414,2.543 -1.027,1.695 -1.539,4.113 -1.539,7.246 0,3.395 0.609,6.02 1.824,7.875 1.25,1.856 3.043,2.781 5.379,2.781 1.277,0 2.574,-0.269 3.887,-0.812 1.312,-0.543 2.558,-1.309 3.742,-2.305 z"
         style="fill:#ffffff;fill-opacity:1;fill-rule:evenodd;stroke:none"
         id="path1223" />
      <path
         d="m 301.59,3.746 c 0,-1.058 0.351,-1.937 1.055,-2.641 0.738,-0.738 1.617,-1.105 2.64,-1.105 1.055,0 1.938,0.367 2.641,1.105 0.734,0.704 1.105,1.583 1.105,2.641 0,1.024 -0.371,1.902 -1.105,2.637 -0.703,0.707 -1.586,1.058 -2.641,1.058 -1.023,0 -1.902,-0.351 -2.64,-1.058 C 301.941,5.648 301.59,4.77 301.59,3.746 Z m 7.055,10.176 v 18.047 c 0,1.695 0.082,2.961 0.242,3.793 0.191,0.832 0.59,1.39 1.199,1.679 0.609,0.258 1.519,0.418 2.734,0.477 v 1.922 h -15.117 v -1.922 c 1.215,-0.066 2.125,-0.242 2.735,-0.531 0.609,-0.321 1.007,-0.864 1.199,-1.633 0.226,-0.801 0.336,-1.953 0.336,-3.457 v -5.902 c 0,-1.856 -0.032,-3.395 -0.094,-4.61 -0.067,-1.215 -0.145,-2.031 -0.242,-2.449 -0.16,-0.797 -0.528,-1.324 -1.102,-1.582 -0.547,-0.258 -1.555,-0.387 -3.027,-0.387 v -1.633 z"
         style="fill:#ffffff;fill-opacity:1;fill-rule:evenodd;stroke:none"
         id="path1225" />
      <path
         d="m 338.215,33.695 1.344,1.68 c -2.914,3.297 -6.547,4.945 -10.899,4.945 -2.621,0 -4.926,-0.543 -6.91,-1.632 -1.984,-1.086 -3.535,-2.59 -4.656,-4.512 -1.09,-1.953 -1.633,-4.192 -1.633,-6.719 0,-2.656 0.578,-4.992 1.727,-7.008 1.187,-2.051 2.816,-3.648 4.898,-4.801 2.078,-1.152 4.465,-1.726 7.152,-1.726 3.391,0 6.032,0.926 7.918,2.781 1.891,1.824 2.832,4.371 2.832,7.633 0,0.512 -0.078,0.832 -0.238,0.961 -0.16,0.098 -0.609,0.144 -1.344,0.144 h -15.457 c -0.129,0.289 -0.191,0.817 -0.191,1.586 0,3.102 0.672,5.582 2.015,7.438 1.375,1.824 3.231,2.738 5.567,2.738 1.344,0 2.672,-0.305 3.984,-0.914 1.344,-0.609 2.641,-1.473 3.887,-2.594 z m -14.93,-10.941 h 6.961 c 1.313,0 2.145,-0.066 2.496,-0.192 0.352,-0.156 0.528,-0.507 0.528,-1.054 0,-1.41 -0.403,-2.563 -1.2,-3.457 -0.8,-0.895 -1.808,-1.344 -3.023,-1.344 -1.379,0 -2.609,0.574 -3.699,1.727 -1.055,1.121 -1.743,2.562 -2.063,4.32 z"
         style="fill:#ffffff;fill-opacity:1;fill-rule:evenodd;stroke:none"
         id="path1227" />
      <path
         d="m 354.055,25.391 v 6.625 c 0,1.726 0.078,2.992 0.238,3.793 0.16,0.8 0.527,1.328 1.105,1.582 0.606,0.261 1.551,0.437 2.832,0.535 v 1.918 h -15.121 v -1.918 c 1.25,-0.098 2.176,-0.258 2.786,-0.481 0.605,-0.257 1.007,-0.769 1.199,-1.535 0.191,-0.765 0.289,-1.953 0.289,-3.551 v -6 c 0,-1.89 -0.031,-3.41 -0.098,-4.562 -0.062,-1.184 -0.144,-1.981 -0.238,-2.399 -0.192,-0.832 -0.563,-1.375 -1.106,-1.632 -0.543,-0.258 -1.55,-0.387 -3.023,-0.387 v -1.633 l 9.266,-1.824 0.621,4.223 H 353 c 1.055,-1.309 2.301,-2.336 3.742,-3.071 1.473,-0.769 3.055,-1.152 4.754,-1.152 2.047,0 3.695,0.289 4.942,0.867 1.281,0.543 2.417,1.473 3.41,2.785 0.543,0.735 1.023,1.696 1.437,2.879 0.418,1.152 0.625,2.754 0.625,4.801 v 6.766 c 0,1.73 0.082,2.992 0.242,3.792 0.16,0.801 0.528,1.329 1.102,1.586 0.609,0.258 1.519,0.438 2.738,0.532 v 1.922 H 360.969 V 37.93 c 1.277,-0.067 2.207,-0.227 2.781,-0.477 0.609,-0.262 1.008,-0.773 1.199,-1.539 0.196,-0.797 0.289,-1.98 0.289,-3.551 v -6.527 c 0,-3.266 -0.414,-5.535 -1.246,-6.816 -0.801,-1.313 -2.242,-1.969 -4.32,-1.969 -1.024,0 -1.906,0.289 -2.641,0.867 -0.734,0.578 -1.375,1.379 -1.922,2.402 -0.285,0.578 -0.543,1.328 -0.765,2.254 -0.192,0.895 -0.289,1.84 -0.289,2.832 z"
         style="fill:#ffffff;fill-opacity:1;fill-rule:evenodd;stroke:none"
         id="path1229" />
      <path
         d="m 400.711,34.031 1.246,1.824 c -1.184,1.411 -2.687,2.512 -4.512,3.313 -1.824,0.77 -3.808,1.152 -5.953,1.152 -2.59,0 -4.863,-0.543 -6.816,-1.632 -1.949,-1.122 -3.469,-2.657 -4.559,-4.606 -1.086,-1.984 -1.633,-4.258 -1.633,-6.816 0,-2.692 0.578,-5.028 1.731,-7.008 1.183,-2.016 2.816,-3.57 4.894,-4.656 2.079,-1.122 4.512,-1.68 7.297,-1.68 1.887,0 3.582,0.254 5.086,0.766 1.504,0.484 2.688,1.156 3.555,2.015 0.863,0.863 1.293,1.856 1.293,2.977 0,0.832 -0.254,1.535 -0.766,2.113 -0.512,0.543 -1.25,0.812 -2.207,0.812 -0.898,0 -1.601,-0.222 -2.113,-0.667 -0.481,-0.485 -0.961,-1.075 -1.442,-1.778 -0.574,-0.863 -1.054,-1.535 -1.437,-2.015 -0.352,-0.512 -0.707,-0.879 -1.059,-1.106 -0.351,-0.223 -0.847,-0.332 -1.488,-0.332 -1.887,0 -3.359,0.848 -4.414,2.543 -1.023,1.695 -1.535,4.113 -1.535,7.246 0,3.395 0.605,6.02 1.824,7.875 1.246,1.856 3.039,2.781 5.375,2.781 1.281,0 2.574,-0.269 3.887,-0.812 1.312,-0.543 2.562,-1.309 3.746,-2.305 z"
         style="fill:#ffffff;fill-opacity:1;fill-rule:evenodd;stroke:none"
         id="path1231" />
      <path
         d="m 428.262,33.695 1.343,1.68 c -2.914,3.297 -6.543,4.945 -10.894,4.945 -2.625,0 -4.93,-0.543 -6.914,-1.632 -1.985,-1.086 -3.535,-2.59 -4.656,-4.512 -1.086,-1.953 -1.633,-4.192 -1.633,-6.719 0,-2.656 0.578,-4.992 1.73,-7.008 1.184,-2.051 2.817,-3.648 4.895,-4.801 2.082,-1.152 4.465,-1.726 7.152,-1.726 3.391,0 6.031,0.926 7.922,2.781 1.887,1.824 2.832,4.371 2.832,7.633 0,0.512 -0.082,0.832 -0.242,0.961 -0.16,0.098 -0.609,0.144 -1.344,0.144 h -15.457 c -0.129,0.289 -0.191,0.817 -0.191,1.586 0,3.102 0.672,5.582 2.015,7.438 1.375,1.824 3.231,2.738 5.571,2.738 1.343,0 2.671,-0.305 3.98,-0.914 1.344,-0.609 2.641,-1.473 3.891,-2.594 z m -14.93,-10.941 h 6.961 c 1.312,0 2.145,-0.066 2.496,-0.192 0.352,-0.156 0.527,-0.507 0.527,-1.054 0,-1.41 -0.398,-2.563 -1.199,-3.457 -0.801,-0.895 -1.808,-1.344 -3.023,-1.344 -1.375,0 -2.61,0.574 -3.696,1.727 -1.058,1.121 -1.746,2.562 -2.066,4.32 z"
         style="fill:#ffffff;fill-opacity:1;fill-rule:evenodd;stroke:none"
         id="path1233" />
      <path
         d="m 436.902,38.16 -1.058,1.68 h -1.489 v -8.735 h 2.02 c 0.543,2.27 1.324,3.95 2.352,5.04 1.023,1.054 2.351,1.582 3.984,1.582 1.184,0 2.094,-0.239 2.734,-0.723 0.672,-0.512 1.008,-1.199 1.008,-2.063 0,-0.894 -0.398,-1.757 -1.199,-2.593 -0.801,-0.864 -2.098,-1.774 -3.887,-2.735 -2.433,-1.312 -4.179,-2.609 -5.234,-3.886 -1.055,-1.313 -1.582,-2.786 -1.582,-4.418 0,-1.438 0.336,-2.719 1.008,-3.84 0.703,-1.121 1.648,-2 2.832,-2.641 1.183,-0.64 2.511,-0.961 3.984,-0.961 0.992,0 1.98,0.149 2.973,0.438 0.992,0.289 1.84,0.687 2.547,1.199 l 0.863,-1.152 h 1.246 v 7.246 h -1.871 c -0.735,-1.825 -1.504,-3.137 -2.305,-3.934 -0.766,-0.801 -1.711,-1.203 -2.832,-1.203 -0.894,0 -1.613,0.242 -2.16,0.727 -0.512,0.48 -0.766,1.121 -0.766,1.917 0,0.895 0.399,1.743 1.2,2.543 0.8,0.801 2.093,1.68 3.886,2.641 2.594,1.375 4.449,2.734 5.571,4.078 1.117,1.348 1.679,2.883 1.679,4.61 0,2.207 -0.801,3.984 -2.402,5.328 -1.566,1.343 -3.68,2.015 -6.336,2.015 -1.375,0 -2.656,-0.175 -3.84,-0.523 -1.183,-0.387 -2.16,-0.93 -2.926,-1.633 z"
         style="fill:#ffffff;fill-opacity:1;fill-rule:evenodd;stroke:none"
         id="path1235" />
      <path
         d="m 80.512,14.871 c -0.594,0.008 -1.137,0.305 -1.594,0.66 -1.234,0.946 -2.34,2.047 -3.453,3.133 -1.637,1.625 -3.199,3.32 -4.777,5 -0.602,0.629 -1.208,1.258 -1.825,1.859 -0.316,0.301 -0.633,0.614 -0.965,0.895 -0.207,0.129 -0.449,0.18 -0.671,0.262 -0.106,0.035 -0.188,0.058 -0.297,0.09 -0.571,0.168 -1.153,0.269 -1.727,0.418 -0.57,0.16 -1.117,0.421 -1.574,0.804 -0.664,0.531 -1.219,1.18 -1.797,1.793 -2.074,2.246 -4.144,4.5 -6.402,6.563 -0.664,0.601 -1.364,1.168 -2.086,1.691 -0.059,0.047 -0.117,0.09 -0.176,0.133 -1.676,-0.957 -3.387,-1.867 -4.969,-2.977 -0.73,-0.507 -1.437,-1.047 -2.121,-1.629 -0.336,-0.281 -0.668,-0.589 -1.004,-0.878 -0.679,-0.586 -1.383,-1.161 -2.195,-1.551 -0.59,-0.278 -1.266,-0.395 -1.902,-0.254 -0.614,0.125 -1.168,0.457 -1.622,0.879 -1.269,1.082 -2.484,2.226 -3.699,3.371 -2.476,2.347 -4.902,4.75 -7.476,6.992 -0.602,0.52 -1.211,1.035 -1.844,1.508 -0.367,0.269 -0.734,0.539 -1.141,0.742 -0.312,0.152 -0.664,0.164 -1.004,0.195 -1.457,0.078 -2.918,0.028 -4.379,0.012 -1.128,-0.02 -2.261,-0.035 -3.39,-0.051 -0.871,0.922 -1.715,1.867 -2.606,2.77 -1.336,1.301 -2.738,2.527 -4.14,3.754 -2.336,2.019 -4.746,3.957 -7.028,6.043 -0.281,0.277 -0.519,0.593 -0.836,0.836 -0.5,0.406 -1.089,0.757 -1.472,1.3 -0.231,0.321 -0.371,0.719 -0.332,1.121 0.031,0.446 0.289,0.872 0.672,1.106 13.914,2.613 27.621,8.781 39.332,6.16 18.687,-4.683 27.59,-13.066 39.957,-8.695 8.886,0.172 41.39,7.824 45.043,-1.582 0.179,-0.469 0.074,-1.016 -0.219,-1.418 -0.438,-0.688 -1.027,-1.258 -1.578,-1.856 -0.356,-0.382 -0.715,-0.781 -1.051,-1.172 -0.492,-0.57 -0.969,-1.164 -1.426,-1.75 -0.687,-0.89 -1.34,-1.8 -1.988,-2.714 -1.227,-1.688 -2.516,-3.325 -3.812,-4.957 -1.258,-1.579 -2.532,-3.149 -3.848,-4.676 -0.606,-0.696 -1.227,-1.387 -1.965,-1.946 -0.516,-0.367 -1.145,-0.558 -1.777,-0.566 -0.84,-0.039 -1.7,-0.012 -2.504,0.262 -0.832,0.273 -1.594,0.711 -2.352,1.144 -0.68,0.399 -1.347,0.821 -1.988,1.282 -0.141,0.105 -0.277,0.211 -0.414,0.32 -0.727,-0.77 -1.402,-1.586 -2.078,-2.406 -1.391,-1.703 -2.692,-3.512 -3.653,-5.504 -0.418,-0.867 -0.765,-1.77 -1.015,-2.699 -0.016,-0.063 -0.043,-0.161 -0.063,-0.235 -0.176,-0.742 -0.347,-1.488 -0.648,-2.191 -0.289,-0.7 -0.711,-1.356 -1.289,-1.852 -0.375,-0.332 -0.809,-0.594 -1.258,-0.812 -0.359,-0.188 -0.625,-0.504 -0.895,-0.797 -0.683,-0.793 -1.25,-1.68 -1.867,-2.524 -0.687,-0.941 -1.394,-1.871 -2.172,-2.738 -0.519,-0.574 -1.078,-1.125 -1.699,-1.59 -0.555,-0.41 -1.183,-0.722 -1.848,-0.898 -0.355,-0.106 -0.722,-0.188 -1.093,-0.18 z M 53.754,0 c -1.727,0.02 -3.422,0.637 -4.828,1.629 -1.34,0.933 -2.422,2.187 -3.34,3.527 -1.359,1.973 -2.43,4.137 -3.297,6.367 -0.254,0.668 -0.488,1.344 -0.703,2.028 -1.055,-0.246 -2.117,-0.473 -3.184,-0.653 -1.449,-0.253 -2.902,-0.488 -4.367,-0.609 -1.543,-0.109 -3.09,-0.027 -4.637,0.004 -1.195,0.031 -2.402,0.109 -3.562,0.422 -1.762,0.433 -3.481,1.156 -4.91,2.289 -1.289,1.016 -2.317,2.387 -2.809,3.961 -0.273,0.851 -0.363,1.754 -0.359,2.644 -0.008,1.262 0.176,2.528 0.535,3.739 0.129,0.464 0.293,0.941 0.645,1.285 0.14,0.148 0.32,0.265 0.492,0.355 -0.489,0.641 -0.856,1.379 -1.024,2.168 -0.187,0.852 -0.226,1.739 -0.105,2.606 0.25,1.726 1.242,3.347 2.711,4.304 0.8,0.536 1.715,0.93 2.679,1.047 0.254,0.035 0.508,0.059 0.766,0.067 -1.781,1.957 -3.422,4.062 -4.699,6.386 -0.418,0.758 -0.797,1.536 -1.199,2.301 -0.067,0.121 -0.129,0.246 -0.196,0.371 1.969,0.028 3.934,0.078 5.903,0.02 0.675,-1.16 1.414,-2.289 2.222,-3.363 0.266,-0.352 0.555,-0.723 0.836,-1.067 0.602,-0.734 1.235,-1.449 1.906,-2.121 0.497,0.41 0.989,0.824 1.493,1.223 0.468,0.308 1.152,0.207 1.515,-0.223 0.992,-0.945 1.985,-1.891 2.977,-2.84 -0.711,-0.59 -1.434,-1.176 -2.145,-1.773 1.032,-0.887 2.09,-1.739 3.176,-2.563 0.742,-0.558 1.504,-1.097 2.266,-1.636 -0.039,0.871 -0.074,1.742 -0.11,2.613 0.871,-0.625 1.735,-1.258 2.614,-1.879 0.3,-0.145 0.656,-0.145 0.972,-0.035 0.555,0.14 1.114,0.277 1.668,0.418 0.074,-1.289 0.133,-2.578 0.239,-3.864 0.019,-0.269 0.046,-0.535 0.074,-0.796 0.761,-0.454 1.527,-0.891 2.301,-1.313 2.355,-1.262 4.734,-2.484 7.16,-3.609 0.132,-0.059 0.269,-0.121 0.406,-0.176 1.203,0.551 2.383,1.148 3.566,1.738 1.602,0.805 3.203,1.621 4.782,2.477 0.925,0.511 1.832,1.062 2.746,1.601 0.613,-0.23 1.25,-0.394 1.89,-0.535 0.813,-0.195 1.602,-0.476 2.356,-0.844 0.613,-0.273 1.222,-0.546 1.836,-0.82 -0.797,-0.539 -1.598,-1.074 -2.395,-1.617 -0.324,-2.078 -0.629,-4.168 -1.074,-6.227 -0.031,-0.148 -0.066,-0.297 -0.098,-0.445 1.157,-0.258 2.317,-0.469 3.481,-0.68 0.894,-0.156 1.793,-0.273 2.691,-0.379 0.367,-0.043 0.735,-0.089 1.102,-0.132 0.203,0.547 0.504,1.05 0.832,1.531 0.261,0.402 0.519,0.805 0.781,1.207 1.02,-0.938 1.992,-1.926 3.051,-2.817 0.312,-0.253 0.617,-0.523 0.969,-0.722 0.238,-0.094 0.488,0.004 0.722,0.058 0.469,0.122 0.922,0.309 1.309,0.602 0.859,0.609 1.527,1.434 2.238,2.199 0.242,0.266 0.484,0.531 0.727,0.797 0.39,-0.723 0.828,-1.414 1.238,-2.125 0.348,-0.605 0.578,-1.285 0.633,-1.984 0.047,-0.539 0.039,-1.082 0.027,-1.621 -0.019,-0.602 -0.105,-1.207 -0.348,-1.762 -0.339,-0.797 -0.847,-1.52 -1.457,-2.137 C 84.688,9.875 83.766,9.312 82.773,8.957 82.332,8.809 81.859,8.719 81.398,8.715 80.969,8.707 80.535,8.695 80.105,8.719 79.48,8.754 78.852,8.883 78.289,9.164 c -1.559,0.703 -2.859,2.004 -3.484,3.602 -0.016,0.105 -0.059,0.054 -0.106,0 -0.359,-0.332 -0.871,-0.442 -1.351,-0.411 -0.688,0.047 -1.368,0.141 -2.051,0.239 -1.074,0.156 -2.145,0.344 -3.215,0.531 -0.676,0.125 -1.352,0.258 -2.02,0.402 C 65.707,12.523 65.363,11.516 64.945,10.539 64,8.273 62.824,6.094 61.309,4.16 60.414,3.031 59.379,1.988 58.145,1.234 56.828,0.438 55.297,-0.023 53.754,0 Z m 0.141,5.191 c 0.683,0.024 1.316,0.352 1.851,0.754 0.895,0.668 1.606,1.559 2.223,2.469 0.097,0.145 0.191,0.289 0.285,0.441 0.516,0.821 0.961,1.68 1.363,2.559 0.367,0.805 0.711,1.648 1.035,2.473 0.141,0.355 0.274,0.711 0.395,1.07 -2.098,0.676 -4.192,1.391 -6.238,2.219 -0.336,0.129 -0.672,0.265 -1.012,0.386 -1.024,-0.394 -2.047,-0.839 -3.086,-1.21 -1.356,-0.5 -2.723,-0.957 -4.09,-1.411 0.34,-1.027 0.734,-2.039 1.168,-3.031 0.356,-0.805 0.754,-1.617 1.195,-2.394 0.219,-0.387 0.438,-0.762 0.7,-1.129 0.605,-0.86 1.336,-1.629 2.117,-2.321 0.433,-0.375 0.937,-0.695 1.508,-0.812 0.191,-0.039 0.39,-0.066 0.586,-0.063 z M 31.426,17.496 c 0.785,0.004 1.578,0.008 2.355,0.043 0.332,0.016 0.68,0.039 1.004,0.066 0.274,0.024 0.555,0.055 0.809,0.086 0.234,0.032 0.445,0.063 0.676,0.098 0.207,0.035 0.437,0.07 0.652,0.109 0.769,0.141 1.555,0.305 2.324,0.469 0.324,0.071 0.649,0.141 0.973,0.215 -0.446,2.211 -0.864,4.43 -1.16,6.664 -1.563,0.988 -3.098,2.024 -4.582,3.133 -1.133,0.836 -2.247,1.703 -3.336,2.594 0.023,-0.856 -0.082,-1.723 -0.356,-2.535 -0.34,-0.961 -0.976,-1.793 -1.719,-2.481 -0.656,-0.594 -1.418,-1.082 -2.25,-1.383 -0.683,-0.242 -1.418,-0.238 -2.132,-0.238 -0.446,-0.004 -0.895,-0.004 -1.336,0.066 -0.059,-0.746 -0.336,-1.457 -0.36,-2.207 -0.043,-0.687 0,-1.398 0.27,-2.039 0.308,-0.652 0.887,-1.144 1.512,-1.48 0.07,-0.039 0.109,-0.063 0.179,-0.102 0.52,-0.273 1.059,-0.519 1.625,-0.691 0.953,-0.281 1.957,-0.332 2.946,-0.363 0.628,-0.02 1.273,-0.02 1.906,-0.024 z m 14.386,2.656 c 0.477,0.16 0.954,0.325 1.43,0.489 -0.797,0.406 -1.594,0.812 -2.383,1.234 0.106,-0.582 0.223,-1.172 0.348,-1.746 0.02,-0.055 0.016,-0.137 0.047,-0.164 0.187,0.062 0.371,0.125 0.558,0.187 z m 16.711,0.336 c 0.09,0.461 0.184,0.922 0.27,1.383 -0.777,-0.414 -1.563,-0.816 -2.348,-1.219 0.657,-0.222 1.317,-0.441 1.977,-0.652 0.035,0.16 0.066,0.324 0.101,0.488 z m -8.91,7.235 c -1.277,0.027 -2.566,0.289 -3.691,0.914 -1.508,0.832 -2.758,2.113 -3.586,3.621 -0.379,0.711 -0.629,1.488 -0.758,2.281 -0.047,0.231 -0.094,0.461 -0.14,0.691 1.57,1.231 3.234,2.348 4.98,3.313 0.801,0.457 1.617,0.918 2.422,1.375 0.152,0.086 0.301,0.172 0.453,0.258 1.141,-0.86 2.312,-1.688 3.355,-2.672 1.711,-1.559 3.293,-3.25 4.891,-4.922 -0.57,-0.949 -1.168,-1.906 -1.996,-2.66 -1.148,-1.094 -2.637,-1.824 -4.203,-2.07 -0.57,-0.094 -1.149,-0.137 -1.727,-0.129 z"
         style="fill:#ffffff;fill-opacity:1;fill-rule:nonzero;stroke:none"
         id="path1237" />
      <path
         d="m 33.754,65.461 c 0.308,-0.863 2.047,-2.82 6.133,-6.887 3.968,-3.957 6.859,-7.472 8.273,-10.066 0.567,-1.035 0.695,-1.625 0.707,-3.192 0.012,-1.804 -0.058,-2.043 -1.121,-3.847 -0.621,-1.055 -1.496,-2.551 -1.941,-3.317 -0.45,-0.765 -1.524,-2.156 -2.391,-3.093 l -1.574,-1.7 -1.871,1.914 c -1.028,1.051 -1.989,2.274 -2.133,2.715 -0.145,0.446 -0.625,1.383 -1.066,2.09 -0.438,0.707 -0.731,1.391 -0.653,1.52 0.078,0.129 0.778,0.152 1.555,0.054 1.269,-0.156 1.414,-0.125 1.414,0.321 0,0.269 -0.371,0.839 -0.82,1.265 -1.071,1.004 -1.543,2.157 -1.543,3.746 0,3.078 -0.539,3.782 -4.493,5.864 -2.101,1.105 -3.32,2.004 -5.878,4.34 -1.774,1.617 -3.274,3.085 -3.332,3.261 -0.059,0.18 -0.297,0.242 -0.547,0.145 -0.344,-0.129 -0.446,-0.5 -0.446,-1.621 0,-0.797 -0.062,-1.45 -0.14,-1.45 -1.114,0 -7.465,3.063 -9.649,4.657 -0.691,0.504 -1.308,0.863 -1.371,0.804 -0.258,-0.261 0.801,-1.336 2.321,-2.359 0.89,-0.602 2.316,-1.633 3.164,-2.293 0.847,-0.664 2.5,-1.734 3.668,-2.387 2.113,-1.179 3.32,-2.429 3.32,-3.441 0,-0.484 -0.207,-0.57 -2.149,-0.879 -0.851,-0.137 -1.015,-0.293 -1.41,-1.328 l -0.449,-1.172 h -1.77 c -1.953,0 -2.199,0.156 -2.476,1.574 -0.375,1.914 -1,3.446 -1.547,3.785 -0.309,0.196 -1.402,0.411 -2.43,0.477 -2.304,0.152 -3.547,0.789 -6.797,3.484 -1.296,1.082 -2.507,1.961 -2.687,1.965 -0.582,0 -0.352,-0.472 0.523,-1.09 0.469,-0.328 1.004,-0.804 1.192,-1.058 0.183,-0.254 2.547,-2.309 5.246,-4.567 2.703,-2.257 5.695,-4.949 6.652,-5.976 l 1.742,-1.875 3.989,0.062 c 3.234,0.047 4.148,-0.019 4.82,-0.363 1.422,-0.723 4.059,-3.004 9.234,-8 2.747,-2.652 5.305,-4.981 5.688,-5.18 1.066,-0.554 1.844,-0.199 4.18,1.903 1.347,1.214 3.3,2.586 5.257,3.699 l 3.118,1.769 1.504,-1.129 c 1.628,-1.222 4.156,-3.714 7.668,-7.55 2.148,-2.352 2.289,-2.453 3.804,-2.77 0.867,-0.18 1.887,-0.496 2.266,-0.699 0.383,-0.203 2.222,-2.027 4.09,-4.051 3.257,-3.523 6.136,-6.324 7.324,-7.121 0.488,-0.324 0.711,-0.32 1.707,0.016 1.328,0.449 2.891,2.09 5.355,5.625 1.102,1.582 1.871,2.406 2.532,2.718 1.355,0.645 1.933,1.524 2.422,3.68 0.648,2.863 2.199,5.735 4.898,9.067 1.32,1.628 2.609,3.07 2.863,3.207 0.352,0.187 0.649,0.085 1.219,-0.415 0.414,-0.367 1.578,-1.128 2.59,-1.695 1.484,-0.836 2.101,-1.031 3.219,-1.035 1.289,-0.004 1.468,0.078 2.527,1.137 1.336,1.336 6.797,8.144 8.668,10.801 1.715,2.441 3.113,4.168 4.707,5.832 0.723,0.753 1.246,1.441 1.16,1.527 -0.215,0.211 -3.945,-3.594 -5.293,-5.391 -4.922,-6.578 -9.992,-12.336 -10.863,-12.336 -0.145,0 -1.11,0.938 -2.141,2.078 -3.695,4.102 -9.258,7.61 -12.09,7.625 -0.507,0.004 -1.3,0.118 -1.769,0.25 -1.899,0.547 -1.012,-0.546 2.164,-2.664 2.086,-1.39 4.726,-3.671 5.141,-4.445 0.347,-0.644 0.203,-0.867 -2.77,-4.285 -2.527,-2.902 -3,-3.723 -4.473,-7.742 -0.941,-2.574 -1.133,-2.875 -2.867,-4.594 -1.023,-1.008 -2.625,-2.758 -3.562,-3.883 -1.7,-2.047 -2.957,-3.07 -3.766,-3.07 -0.32,0 -0.43,0.25 -0.43,0.984 -0.004,1.645 -0.468,2.871 -3.109,8.199 -1.399,2.817 -2.746,5.735 -3.004,6.489 -0.391,1.156 -0.805,1.672 -2.621,3.246 -2.078,1.805 -3.207,2.558 -3.461,2.305 -0.066,-0.067 0.051,-0.766 0.262,-1.555 0.523,-1.965 0.492,-3.223 -0.094,-3.75 -0.809,-0.731 -1.305,-0.5 -2.602,1.203 -1.429,1.883 -2.796,3.348 -3.125,3.348 -0.121,0 -0.504,-0.532 -0.847,-1.18 -0.344,-0.652 -0.719,-1.184 -0.832,-1.184 -0.114,0 -0.348,0.446 -0.524,0.985 -0.175,0.543 -0.742,1.922 -1.258,3.062 -0.886,1.957 -1.07,2.176 -3.179,3.738 -1.235,0.915 -2.832,1.852 -3.551,2.09 -1.684,0.551 -1.969,0.793 -1.969,1.657 0,1.429 -1.113,4.882 -2.32,7.203 l -1.242,2.39 -2.614,1.407 c -1.437,0.777 -3.562,2.039 -4.714,2.808 -1.157,0.766 -2.633,1.625 -3.282,1.906 -0.648,0.282 -1.527,0.879 -1.949,1.329 -0.851,0.902 -1.543,1.097 -1.281,0.359 z M 53.91,1.523 c -2.047,-0.019 -4.086,0.957 -5.801,2.864 -2.054,2.289 -4.089,6.234 -5.214,10.109 -0.133,0.453 -0.297,0.82 -0.364,0.82 -0.07,0 -0.922,-0.187 -1.894,-0.421 -0.977,-0.235 -2.934,-0.594 -4.352,-0.801 -2.344,-0.344 -2.863,-0.371 -5.66,-0.309 -2.703,0.059 -3.266,0.113 -4.551,0.438 -3.601,0.914 -6.004,2.965 -6.633,5.668 -0.261,1.121 -0.199,3.047 0.137,4.351 0.418,1.629 0.383,1.602 1.285,1.031 0.426,-0.265 0.84,-0.507 0.918,-0.535 0.09,-0.031 0.051,-0.437 -0.109,-1.086 -0.383,-1.554 -0.27,-3.289 0.277,-4.293 0.531,-0.972 1.246,-1.613 2.512,-2.25 1.867,-0.941 3.051,-1.14 6.809,-1.136 3.593,0 4.707,0.125 8.597,0.968 1.485,0.321 2.137,0.524 2.113,0.649 -0.511,2.41 -1.07,5.402 -1.261,6.789 l -0.246,1.777 -1.379,0.875 c -3.836,2.446 -8.86,6.449 -11.91,9.5 -2.899,2.899 -5.012,5.66 -6.332,8.219 l 0.136,0.004 c 1.086,0.016 1.809,0.012 2.403,0 1.281,-2.149 3.203,-4.625 5.047,-6.41 L 29.152,37.652 31,39.199 c 0.109,0.09 0.223,0.172 0.332,0.262 0.48,-0.449 1.043,-0.988 1.59,-1.512 -1.149,-0.937 -2.082,-1.742 -2.082,-1.847 0,-0.145 2.07,-1.914 3.953,-3.387 1.477,-1.149 5.301,-3.817 5.375,-3.746 0.02,0.023 -0.02,0.875 -0.09,1.902 -0.012,0.145 -0.016,0.395 -0.023,0.563 0.027,-0.016 0.101,-0.082 0.125,-0.094 0.718,-0.375 1.371,-0.442 2.058,-0.254 0.055,-1.07 0.121,-2.113 0.219,-2.941 l 0.086,-0.723 1.242,-0.734 c 2.68,-1.59 9.606,-5.063 10.09,-5.063 0.301,0 8.043,3.891 9.734,4.895 l 1.496,0.882 c 0.274,-0.086 0.547,-0.168 0.903,-0.242 0.781,-0.164 1.601,-0.43 1.875,-0.558 -0.149,-0.098 -0.61,-0.422 -0.66,-0.45 -0.012,-0.007 -0.161,-0.949 -0.332,-2.093 -0.329,-2.188 -0.703,-4.204 -1.059,-5.692 l -0.211,-0.894 0.524,-0.149 c 1.023,-0.293 4.699,-0.996 6.062,-1.164 l 1.383,-0.168 0.062,-1.019 c 0.036,-0.559 0.043,-1.043 0.016,-1.078 -0.152,-0.188 -6.402,0.839 -8.305,1.363 -0.273,0.074 -0.359,-0.09 -0.976,-1.899 C 62.68,8.348 60.066,4.266 57.52,2.641 56.363,1.902 55.137,1.535 53.91,1.523 Z m 0.199,2.153 c 2.203,0.16 4.469,2.293 6.399,6.066 0.847,1.656 2.137,4.891 2.289,5.742 l 0.086,0.477 -2.551,0.832 c -1.402,0.453 -3.418,1.18 -4.484,1.609 -1.063,0.43 -2,0.778 -2.078,0.77 -0.079,-0.004 -0.918,-0.332 -1.864,-0.727 -0.945,-0.394 -2.879,-1.101 -4.301,-1.57 -1.417,-0.473 -2.656,-0.883 -2.753,-0.914 -0.258,-0.086 0.941,-3.492 1.964,-5.59 1.133,-2.312 1.848,-3.363 3.219,-4.738 1.207,-1.211 2.004,-1.695 3.133,-1.906 0.312,-0.059 0.625,-0.075 0.941,-0.051 z m 26.68,6.554 c -1.043,0 -1.336,0.055 -2.031,0.399 -1.742,0.851 -2.856,2.551 -2.86,4.359 -0.003,1.172 0.09,1.617 0.528,2.481 0.054,0.105 0.129,0.195 0.191,0.297 1.117,-1.067 2.063,-1.903 2.664,-2.309 0.348,-0.23 0.68,-0.441 1.313,-0.434 0.371,0.004 0.894,0.141 1.406,0.313 0.984,0.336 1.961,1.105 3.074,2.352 0.102,-0.168 0.211,-0.344 0.281,-0.489 0.321,-0.683 0.375,-1.004 0.375,-2.097 0,-1.055 -0.058,-1.411 -0.328,-1.957 -0.527,-1.071 -1.375,-1.922 -2.433,-2.446 -0.856,-0.418 -1.086,-0.469 -2.18,-0.469 z M 44.23,18.039 c 0.18,0 5.481,1.82 6.172,2.117 l 0.645,0.282 -2.723,1.363 c -1.496,0.75 -3.297,1.695 -3.996,2.097 -0.703,0.407 -1.324,0.735 -1.379,0.735 -0.117,0 -0.117,0.027 0.289,-2.363 0.383,-2.219 0.852,-4.231 0.992,-4.231 z m 19.321,0.063 c 0.094,0.089 1.027,4.824 1.125,5.679 0.051,0.469 0.039,0.848 -0.031,0.84 -0.067,-0.008 -0.61,-0.301 -1.2,-0.652 -0.593,-0.352 -2.355,-1.285 -3.922,-2.074 -1.566,-0.79 -2.82,-1.461 -2.789,-1.493 0.219,-0.218 6.711,-2.41 6.817,-2.3 z m -38.805,7.753 c -1.203,-0.003 -1.453,0.043 -2.168,0.391 -0.957,0.473 -2.035,1.578 -2.449,2.512 -0.406,0.914 -0.492,2.351 -0.207,3.344 0.449,1.539 1.402,2.586 2.949,3.242 1.09,0.457 2.887,0.41 3.957,-0.102 1.027,-0.496 2.125,-1.672 2.504,-2.683 0.434,-1.149 0.371,-2.95 -0.137,-3.981 -0.445,-0.91 -1.347,-1.812 -2.32,-2.316 -0.676,-0.352 -0.926,-0.399 -2.129,-0.407 z m 29.016,3.391 c -0.742,0 -1.489,0.106 -2.176,0.32 -1.723,0.543 -3.512,2.266 -4.199,4.051 -0.114,0.293 -0.199,0.625 -0.266,0.977 1.074,0.816 2.32,1.644 3.598,2.371 l 2.457,1.394 0.902,-0.675 C 55.32,36.75 57.16,34.988 59.617,32.387 59.047,31.48 58.258,30.68 57.223,30.09 56.246,29.531 55.004,29.242 53.762,29.246 Z"
         style="fill:#000000;fill-opacity:1;fill-rule:nonzero;stroke:none"
         id="path1239" />
    </g>
  </g>
</svg>
