<?xml version="1.0" encoding="UTF-8" standalone="no"?>
<!-- Created with Inkscape (http://www.inkscape.org/) -->

<svg
   version="1.1"
   id="svg2"
   width="1174.0518"
   height="1174.0518"
   viewBox="0 0 1174.0518 1174.0518"
   sodipodi:docname="white.svg"
   xml:space="preserve"
   inkscape:version="1.2.2 (b0a8486541, 2022-12-01)"
   xmlns:inkscape="http://www.inkscape.org/namespaces/inkscape"
   xmlns:sodipodi="http://sodipodi.sourceforge.net/DTD/sodipodi-0.dtd"
   xmlns="http://www.w3.org/2000/svg"
   xmlns:svg="http://www.w3.org/2000/svg"><defs
     id="defs6" /><sodipodi:namedview
     id="namedview4"
     pagecolor="#ffffff"
     bordercolor="#000000"
     borderopacity="0.25"
     inkscape:showpageshadow="2"
     inkscape:pageopacity="0.0"
     inkscape:pagecheckerboard="0"
     inkscape:deskcolor="#d1d1d1"
     showgrid="false"
     inkscape:zoom="0.39103005"
     inkscape:cx="199.47316"
     inkscape:cy="572.846"
     inkscape:window-width="1680"
     inkscape:window-height="1013"
     inkscape:window-x="1366"
     inkscape:window-y="0"
     inkscape:window-maximized="1"
     inkscape:current-layer="g8" /><g
     inkscape:groupmode="layer"
     inkscape:label="Image"
     id="g8"
     transform="translate(6180.4473,-36.06036)"><rect
       style="fill:none;fill-rule:evenodd;stroke:none;stroke-width:138.961;stroke-linejoin:round;stroke-dasharray:none;stroke-opacity:1;paint-order:stroke fill markers"
       id="rect2516"
       width="1174.0518"
       height="1174.0518"
       x="-6180.4473"
       y="36.06036"
       inkscape:export-filename="white.png"
       inkscape:export-xdpi="96"
       inkscape:export-ydpi="96" /><path
       style="fill:#ffffff;stroke:none;stroke-width:16.81;stroke-dasharray:none;stroke-opacity:1"
       d="m -5855.6786,857.24121 c 2.8199,-7.9173 18.8141,-25.8825 56.3259,-63.2669 36.4663,-36.3425 63.0049,-68.6196 75.9997,-92.43309 5.2003,-9.52977 6.3961,-14.93602 6.4889,-29.33652 0.1068,-16.56261 -0.5284,-18.74571 -10.275,-35.31873 -5.7138,-9.71571 -13.7506,-23.42359 -17.8595,-30.46197 -4.1089,-7.03836 -13.9817,-19.82502 -21.9395,-28.41478 l -14.4687,-15.61779 -17.1696,17.56832 c -9.4433,9.66258 -18.2659,20.89465 -19.6059,24.96015 -1.3399,4.06551 -5.7394,12.69885 -9.7766,19.18522 -4.0372,6.48639 -6.7435,12.75932 -6.0138,13.9399 0.7296,1.18056 7.161,1.41749 14.292,0.52654 11.6675,-1.45775 12.9654,-1.16513 12.9654,2.92322 0,2.49874 -3.3875,7.72887 -7.5278,11.62252 -9.8115,9.22689 -14.1652,19.80583 -14.1652,34.41944 0,28.26815 -4.9466,34.72185 -41.2671,53.83957 -19.3127,10.1655 -30.5031,18.4294 -53.9928,39.8727 -16.2971,14.8772 -30.0676,28.3593 -30.6012,29.9602 -0.5486,1.6457 -2.7407,2.2313 -5.0438,1.3475 -3.1451,-1.2068 -4.0736,-4.6017 -4.0736,-14.8956 0,-7.3328 -0.5765,-13.3324 -1.2811,-13.3324 -10.2365,0 -68.5657,28.1489 -88.6169,42.7653 -6.3593,4.6357 -12.0288,7.9621 -12.5988,7.392 -2.3783,-2.3782 7.3358,-12.257 21.2889,-21.65 8.2081,-5.5257 21.2952,-15.0137 29.0823,-21.0847 7.7872,-6.071 22.9377,-15.9318 33.6678,-21.9131 19.4262,-10.8286 30.5095,-22.314 30.5095,-31.6163 0,-4.4323 -1.8979,-5.2086 -19.7154,-8.0641 -7.8244,-1.254 -9.3534,-2.6898 -12.9817,-12.19062 l -4.1128,-10.7691 h -16.2497 c -17.9344,0 -20.206,1.44357 -22.7572,14.462 -3.4468,17.58902 -9.178,31.63282 -14.192,34.77702 -2.8596,1.7931 -12.8998,3.7649 -22.3116,4.3816 -21.1881,1.3886 -32.5889,7.2337 -62.4285,32.0069 -11.9312,9.9054 -23.0488,18.0113 -24.7059,18.0132 -5.3263,0.01 -3.227,-4.3389 4.8206,-9.9776 4.3085,-3.0188 9.2269,-7.3971 10.9299,-9.7294 1.703,-2.3324 23.396,-21.2104 48.2066,-41.9511 24.8107,-20.7407 52.3077,-45.45075 61.1045,-54.9111 l 15.9942,-17.20064 36.6391,0.55659 c 29.6906,0.45102 38.0852,-0.17812 44.2641,-3.3178 13.0706,-6.64142 37.272,-27.61192 84.8213,-73.49771 25.2241,-24.34169 48.7317,-45.75197 52.239,-47.57842 9.7805,-5.09327 16.9434,-1.82949 38.4023,17.49817 12.3675,11.13913 30.2993,23.74956 48.2906,33.96013 l 28.6181,16.24153 13.8105,-10.36654 c 14.9623,-11.2312 38.1997,-34.10796 70.4532,-69.35988 19.7345,-21.56918 21.0195,-22.5033 34.9498,-25.40787 7.9541,-1.65847 17.3187,-4.55581 20.8103,-6.43854 3.4915,-1.88271 20.3897,-18.62089 37.5514,-37.19595 29.9197,-32.38366 56.377,-58.10014 67.2889,-65.40482 4.4542,-2.98175 6.5289,-2.96555 15.6671,0.12245 12.1795,4.11564 26.5418,19.20852 49.1791,51.68075 10.1297,14.53061 17.1839,22.1103 23.2466,24.97825 12.4732,5.90047 17.7864,13.96172 22.2605,33.77336 5.9379,26.29398 20.2007,52.69061 45.0026,83.28763 12.1155,14.94651 23.9451,28.20132 26.2879,29.45515 3.2204,1.72351 5.9481,0.79281 11.1799,-3.81464 3.8062,-3.35187 14.5128,-10.35564 23.7926,-15.56391 13.6565,-7.6647 19.2962,-9.47563 29.59,-9.50142 11.8114,-0.0296 13.4646,0.71509 23.2008,10.45129 12.2564,12.25643 62.4361,74.78078 79.6037,99.18682 15.7769,22.42922 28.5895,38.30192 43.2421,53.57032 6.6476,6.927 11.4371,13.2441 10.6433,14.038 -1.9449,1.9449 -36.2373,-32.9966 -48.6106,-49.5308 -45.2137,-60.41791 -91.7773,-113.28552 -99.7771,-113.28552 -1.3374,0 -10.178,8.59276 -19.6456,19.095 -33.9373,37.64589 -85.0524,69.87996 -111.0603,70.03639 -4.6486,0.028 -11.9553,1.05558 -16.2372,2.28359 -17.4497,5.00452 -9.2967,-5.03571 19.8687,-24.46762 19.1712,-12.77316 43.4187,-33.73937 47.2078,-40.81947 3.1854,-5.95195 1.8816,-7.96961 -25.4508,-39.3847 -23.1999,-26.66546 -27.5477,-34.19328 -41.0671,-71.10474 -8.6587,-23.64035 -10.3953,-26.42055 -26.3475,-42.18078 -9.3928,-9.27977 -24.113,-25.33987 -32.7116,-35.68911 -15.5966,-18.77215 -27.151,-28.18469 -34.5983,-28.18469 -2.9362,0 -3.937,2.29184 -3.947,9.03874 -0.022,15.09737 -4.2991,26.3748 -28.5642,75.32282 -12.8151,25.85079 -25.2209,52.66935 -27.5686,59.59683 -3.5916,10.59803 -7.4095,15.32472 -24.0755,29.80651 -19.0813,16.58054 -29.4489,23.47987 -31.78,21.14872 -0.6084,-0.60842 0.4679,-7.02134 2.3919,-14.25093 4.8097,-18.07324 4.5246,-29.59789 -0.8526,-34.46413 -7.4237,-6.71837 -12.0087,-4.5954 -23.916,11.07363 -13.117,17.26083 -25.6915,30.73357 -28.6845,30.73357 -1.1291,0 -4.6423,-4.88092 -7.807,-10.84649 -3.1647,-5.96557 -6.6039,-10.84649 -7.6425,-10.84649 -1.0387,0 -3.1979,4.06744 -4.7983,9.03874 -1.6004,4.97131 -6.8003,17.62843 -11.5554,28.12697 -8.1431,17.97865 -9.8412,19.97416 -29.214,34.33006 -11.3126,8.38303 -25.9916,17.02007 -32.62,19.19341 -15.4402,5.06259 -18.0775,7.28108 -18.0775,15.20654 0,13.13403 -10.2059,44.84725 -21.297,66.17685 l -11.4075,21.9384 -24.0208,12.936 c -13.2114,7.1149 -32.698,18.714 -43.3034,25.776 -10.6055,7.0619 -24.1636,14.95 -30.1291,17.5291 -5.9656,2.5792 -14.0322,8.0679 -17.9259,12.1971 -7.8145,8.2875 -14.1681,10.0657 -11.7548,3.2898 z"
       id="path2522" /><path
       id="path2518"
       style="fill:#ffffff;stroke:none;stroke-width:1.31647"
       d="m -5670.5433,269.96972 c -18.7802,-0.16695 -37.5389,8.78564 -53.2598,26.29687 -18.8702,21.01915 -37.5765,57.26544 -47.9238,92.85938 -1.2064,4.14967 -2.7062,7.54492 -3.3321,7.54492 -0.626,0 -8.4587,-1.7507 -17.4062,-3.88867 -8.9476,-2.13799 -26.9319,-5.44847 -39.9649,-7.35743 -21.5198,-3.152 -26.2957,-3.41318 -52,-2.83984 -24.8069,0.55332 -29.9677,1.05229 -41.7754,4.04102 -33.0751,8.37188 -55.1524,27.2285 -60.9277,52.03906 -2.3995,10.30796 -1.8502,28.00645 1.2402,39.99219 3.8573,14.95997 3.5246,14.69615 11.8184,9.46679 3.9082,-2.46422 7.7023,-4.67943 8.4297,-4.92187 0.828,-0.27601 0.4484,-4.00822 -1.0156,-9.98242 -3.4955,-14.26353 -2.4582,-30.20766 2.5664,-39.42969 4.8647,-8.92834 11.4217,-14.80381 23.0547,-20.66211 17.1656,-8.6445 28.0168,-10.46103 62.5332,-10.45703 33.0363,0.003 43.2491,1.15448 78.9882,8.90429 13.6389,2.95753 19.6364,4.80143 19.3907,5.95899 -4.6987,22.13427 -9.799,49.6315 -11.5723,62.38281 l -2.2676,16.31055 -12.6484,8.04687 c -35.2606,22.43311 -81.3859,59.20819 -109.4102,87.23243 -26.6216,26.62168 -46.0432,52.02014 -58.1582,75.51757 l 1.25,0.0195 c 9.9803,0.15161 16.6157,0.11148 22.0625,-0.0117 11.7731,-19.71417 29.4341,-42.46489 46.3614,-58.85157 l 6.5742,-6.36523 16.9551,14.20508 c 0.9974,0.83563 2.0548,1.5817 3.0546,2.41015 4.4094,-4.13035 9.5847,-9.08362 14.5997,-13.86718 -10.5341,-8.63454 -19.129,-16.03146 -19.129,-17.00586 0,-1.30795 19.018,-17.5743 36.3379,-31.08008 13.5589,-10.57304 48.6916,-35.06619 49.3516,-34.40625 0.1884,0.18848 -0.1833,8.03861 -0.8262,17.44531 -0.092,1.34657 -0.1263,3.63305 -0.207,5.19141 0.2639,-0.16758 0.9367,-0.75709 1.1406,-0.86328 6.6083,-3.44131 12.5996,-4.05224 18.9063,-2.33399 0.5231,-9.85136 1.1301,-19.41415 2.0332,-27.03906 l 0.7832,-6.60352 11.4043,-6.76367 c 24.6213,-14.6017 88.2091,-46.50976 92.6855,-46.50976 2.7642,0 73.8531,35.74647 89.3946,44.95117 l 13.7382,8.13476 c 2.5099,-0.81074 5.0373,-1.56051 8.3067,-2.24218 7.1643,-1.4938 14.7066,-3.94744 17.2246,-5.13086 -1.3639,-0.8914 -5.614,-3.86424 -6.0821,-4.13477 -0.1051,-0.0609 -1.4776,-8.70041 -3.0507,-19.19922 -3.0129,-20.10725 -6.4506,-38.63417 -9.7012,-52.30078 l -1.9492,-8.19922 4.8125,-1.37305 c 9.3771,-2.67407 43.1699,-9.15973 55.6894,-10.6875 l 12.6973,-1.54882 0.582,-9.34961 c 0.3196,-5.14265 0.3819,-9.59739 0.1387,-9.89844 -1.397,-1.72889 -58.8293,7.67897 -76.2832,12.49609 -2.5353,0.69973 -3.3083,-0.80292 -8.9746,-17.43945 -15.6808,-46.03894 -39.6929,-83.51918 -63.0625,-98.43359 -10.6334,-6.78621 -21.9096,-10.16936 -33.1777,-10.26953 z m 1.8261,19.76757 c 20.2414,1.48778 41.0441,21.05225 58.7715,55.70899 7.7942,15.23753 19.6283,44.92416 21.0274,52.75195 l 0.7851,4.39649 -23.4141,7.60937 c -12.8771,4.18573 -31.4089,10.84462 -41.1835,14.79688 -9.7748,3.95224 -18.3658,7.14123 -19.0899,7.08593 -0.7241,-0.0553 -8.4246,-3.0617 -17.1133,-6.67968 -8.6886,-3.61801 -26.461,-10.11364 -39.4941,-14.43555 -13.033,-4.3219 -24.4218,-8.09924 -25.3067,-8.39258 -2.3668,-0.78453 8.6414,-32.07301 18.0586,-51.32812 10.3996,-21.26359 16.9539,-30.91833 29.5508,-43.53907 11.0903,-11.11124 18.4046,-15.55823 28.7774,-17.49609 2.858,-0.53394 5.7392,-0.69106 8.6308,-0.47852 z m 245.0781,60.19727 c -9.6032,0 -12.2908,0.52758 -18.6738,3.66211 -15.977,7.84596 -26.2156,23.45351 -26.2676,40.04492 -0.034,10.78357 0.8374,14.86362 4.8594,22.77539 0.496,0.97565 1.1906,1.80466 1.752,2.73438 10.2571,-9.7981 18.9572,-17.4862 24.4863,-21.1875 3.1818,-2.12997 6.2219,-4.04941 12.0469,-4.00391 3.418,0.0267 8.2153,1.31268 12.8965,2.89453 9.0518,3.05878 18.0444,10.15366 28.2656,21.56836 0.9242,-1.54506 1.9297,-3.14349 2.5566,-4.48047 2.9429,-6.27614 3.4688,-9.19731 3.4688,-19.24804 0,-9.69929 -0.5482,-12.95978 -3.0235,-17.98438 -4.8484,-9.84206 -12.6352,-17.66009 -22.3593,-22.44727 -7.8517,-3.86537 -9.9868,-4.32812 -20.0079,-4.32812 z m -335.8222,71.74805 c 1.6642,0 50.3436,16.6923 56.7031,19.44336 l 5.9238,2.5625 -25.0117,12.5371 c -13.7571,6.89558 -30.2813,15.56904 -36.7207,19.2754 -6.4394,3.70634 -12.1326,6.74023 -12.6523,6.74023 -1.0544,0 -1.083,0.22957 2.6758,-21.72266 3.486,-20.36016 7.8067,-38.83593 9.082,-38.83593 z m 177.4922,0.55273 c 0.8286,0.82861 9.424,44.31585 10.3144,52.18555 0.4875,4.30894 0.3644,7.76371 -0.2734,7.69531 -0.6366,-0.0683 -5.6009,-2.76364 -11.0313,-5.99023 -5.4305,-3.22661 -21.6373,-11.79652 -36.0156,-19.04297 -14.3782,-7.24645 -25.9087,-13.40964 -25.623,-13.69532 2.0145,-2.01447 61.6316,-22.14956 62.6289,-21.15234 z m -356.4356,71.24414 c -11.0482,-0.0429 -13.371,0.37558 -19.9121,3.58789 -8.8118,4.32741 -18.71,14.46181 -22.5058,23.04297 -3.7207,8.41112 -4.5373,21.62703 -1.8965,30.71094 4.1151,14.15552 12.8703,23.77792 27.0957,29.78125 9.9799,4.21169 26.5124,3.78743 36.3261,-0.93164 9.4452,-4.5418 19.5233,-15.33013 23.0137,-24.63477 3.9637,-10.56625 3.4,-27.09326 -1.248,-36.55859 -4.1135,-8.37706 -12.4086,-16.65658 -21.3399,-21.29883 -6.2084,-3.22693 -8.4832,-3.65632 -19.5332,-3.69922 z m 266.5196,31.11914 c -6.8427,0.008 -13.6833,0.9789 -19.9942,2.96094 -15.8391,4.97451 -32.2543,20.79448 -38.5918,37.19141 -1.038,2.68566 -1.825,5.75855 -2.4375,8.97265 9.8931,7.48838 21.3199,15.10496 33.0528,21.76367 l 22.5878,12.81836 8.2676,-6.20508 c 11.4093,-8.56415 28.3149,-24.75029 50.9004,-48.63867 -5.2586,-8.34414 -12.5155,-15.70452 -22.0098,-21.11328 -8.9617,-5.10539 -20.3709,-7.76413 -31.7753,-7.75 z"
       sodipodi:nodetypes="ssssssssssssssssssscsscscscsccsssscscccssccscssccssccssssssssccsssssssssscsscssscssssscscssssssssssssssssssssssscscscscssc"
       inkscape:export-filename="../../Documents/Test_logo/black.png"
       inkscape:export-xdpi="96"
       inkscape:export-ydpi="96" /></g></svg>
