<?xml version="1.0" encoding="UTF-8" standalone="no"?>
<!-- Created with Inkscape (http://www.inkscape.org/) -->

<svg
   version="1.1"
   id="svg538"
   width="1149.0627"
   height="626.96747"
   viewBox="0 0 1149.0627 626.96747"
   xmlns="http://www.w3.org/2000/svg"
   xmlns:svg="http://www.w3.org/2000/svg">
  <defs
     id="defs542" />
  <g
     id="g546"
     transform="matrix(1.3333333,0,0,1.3333333,0,1.7674187e-5)">
    <g
       id="g548">
      <path
         d="m 554.641,102.438 c -4.09,0.054 -7.829,2.105 -10.989,4.542 -8.504,6.54 -16.113,14.125 -23.773,21.61 -11.285,11.176 -22.051,22.859 -32.93,34.426 -4.121,4.336 -8.301,8.66 -12.562,12.804 -2.184,2.094 -4.344,4.223 -6.653,6.18 -1.414,0.875 -3.074,1.223 -4.617,1.801 -0.73,0.238 -1.301,0.402 -2.051,0.617 -3.914,1.141 -7.937,1.863 -11.878,2.883 -3.946,1.094 -7.715,2.914 -10.86,5.551 -4.555,3.656 -8.387,8.101 -12.375,12.343 -14.281,15.473 -28.558,30.996 -44.109,45.215 -4.571,4.141 -9.375,8.024 -14.364,11.649 -0.41,0.304 -0.816,0.613 -1.222,0.918 -11.543,-6.602 -23.309,-12.883 -34.215,-20.524 -5.027,-3.5 -9.918,-7.215 -14.609,-11.207 -2.309,-1.941 -4.594,-4.07 -6.934,-6.062 -4.672,-4.039 -9.523,-8.008 -15.121,-10.692 -4.055,-1.89 -8.703,-2.715 -13.109,-1.734 -4.215,0.855 -8.02,3.14 -11.149,6.047 -8.762,7.441 -17.109,15.351 -25.48,23.226 -17.063,16.168 -33.778,32.715 -51.52,48.157 -4.137,3.585 -8.348,7.148 -12.707,10.398 -2.516,1.852 -5.059,3.711 -7.855,5.121 -2.145,1.043 -4.571,1.129 -6.903,1.336 -10.047,0.543 -20.105,0.176 -30.156,0.07 -7.793,-0.117 -15.586,-0.234 -23.379,-0.351 -5.988,6.355 -11.801,12.883 -17.953,19.086 -9.191,8.957 -18.852,17.418 -28.52,25.855 -16.093,13.918 -32.687,27.266 -48.39,41.637 -1.942,1.902 -3.586,4.101 -5.766,5.754 -3.457,2.804 -7.512,5.218 -10.14,8.965 -1.61,2.211 -2.575,4.961 -2.309,7.714 0.234,3.086 1.992,6.016 4.648,7.622 95.844,18.015 190.274,60.507 270.957,42.457 128.727,-32.274 190.063,-90.028 275.254,-59.922 61.211,1.199 285.129,53.902 310.286,-10.899 1.234,-3.23 0.519,-7 -1.504,-9.758 -3.012,-4.742 -7.082,-8.664 -10.852,-12.789 -2.473,-2.632 -4.937,-5.39 -7.262,-8.082 -3.375,-3.918 -6.672,-8.011 -9.812,-12.054 -4.735,-6.121 -9.219,-12.399 -13.707,-18.688 -8.43,-11.629 -17.332,-22.906 -26.25,-34.164 -8.668,-10.871 -17.438,-21.672 -26.516,-32.211 -4.172,-4.773 -8.441,-9.551 -13.527,-13.387 -3.551,-2.531 -7.903,-3.839 -12.25,-3.89 -5.785,-0.278 -11.715,-0.094 -17.25,1.781 -5.731,1.879 -10.985,4.91 -16.196,7.887 -4.683,2.75 -9.285,5.652 -13.687,8.836 -0.969,0.718 -1.914,1.461 -2.852,2.215 -5.007,-5.321 -9.679,-10.946 -14.328,-16.579 -9.566,-11.753 -18.547,-24.207 -25.168,-37.925 -2.871,-5.977 -5.269,-12.184 -6.996,-18.586 -0.109,-0.43 -0.285,-1.106 -0.422,-1.629 -1.226,-5.102 -2.39,-10.254 -4.461,-15.094 -2.003,-4.816 -4.906,-9.328 -8.886,-12.75 -2.586,-2.289 -5.563,-4.105 -8.672,-5.59 -2.465,-1.312 -4.293,-3.48 -6.149,-5.512 -4.718,-5.46 -8.617,-11.554 -12.882,-17.363 -4.723,-6.488 -9.586,-12.89 -14.946,-18.867 -3.597,-3.965 -7.422,-7.758 -11.715,-10.969 -3.824,-2.808 -8.14,-4.957 -12.73,-6.179 -2.438,-0.735 -4.965,-1.301 -7.527,-1.246 z M 370.312,0.008 c -11.91,0.133 -23.582,4.371 -33.261,11.211 -9.239,6.429 -16.684,15.082 -23.028,24.297 -9.359,13.605 -16.726,28.5 -22.683,43.879 -1.758,4.601 -3.375,9.257 -4.848,13.957 -7.269,-1.704 -14.586,-3.266 -21.941,-4.489 -9.977,-1.758 -19.992,-3.363 -30.094,-4.207 -10.629,-0.738 -21.285,-0.195 -31.922,0.028 -8.242,0.23 -16.555,0.75 -24.551,2.902 -12.144,2.98 -23.968,7.973 -33.824,15.777 -8.871,6.985 -15.953,16.453 -19.351,27.282 -1.891,5.871 -2.508,12.074 -2.485,18.218 -0.043,8.703 1.207,17.41 3.703,25.746 0.871,3.2 2,6.508 4.438,8.875 0.976,1 2.187,1.817 3.394,2.446 -3.375,4.398 -5.902,9.48 -7.05,14.922 -1.301,5.871 -1.567,11.984 -0.747,17.941 1.723,11.906 8.575,23.07 18.684,29.672 5.527,3.691 11.816,6.39 18.449,7.219 1.758,0.238 3.524,0.386 5.293,0.437 -12.273,13.484 -23.566,27.996 -32.379,44 -2.871,5.223 -5.5,10.574 -8.273,15.852 -0.441,0.851 -0.883,1.703 -1.324,2.558 13.547,0.188 27.097,0.543 40.644,0.137 4.653,-8.004 9.739,-15.762 15.305,-23.164 1.832,-2.434 3.832,-4.981 5.769,-7.34 4.157,-5.074 8.512,-9.988 13.141,-14.633 3.406,2.832 6.797,5.684 10.274,8.426 3.222,2.145 7.953,1.426 10.433,-1.535 6.84,-6.516 13.68,-13.031 20.524,-19.543 -4.922,-4.09 -9.887,-8.125 -14.782,-12.242 7.11,-6.086 14.383,-11.977 21.864,-17.637 5.128,-3.863 10.367,-7.578 15.613,-11.277 -0.25,5.996 -0.504,11.992 -0.758,17.992 6.02,-4.285 11.973,-8.664 18,-12.934 2.086,-1.004 4.547,-0.996 6.707,-0.23 3.832,0.953 7.664,1.906 11.496,2.863 0.524,-8.875 0.914,-17.762 1.637,-26.625 0.148,-1.832 0.32,-3.66 0.527,-5.488 5.227,-3.117 10.508,-6.137 15.836,-9.02 16.227,-8.699 32.606,-17.129 49.32,-24.867 0.93,-0.418 1.864,-0.828 2.805,-1.215 8.281,3.797 16.414,7.906 24.571,11.965 11.042,5.559 22.062,11.172 32.941,17.055 6.383,3.539 12.617,7.343 18.906,11.047 4.238,-1.578 8.617,-2.735 13.031,-3.692 5.598,-1.344 11.051,-3.289 16.231,-5.797 4.215,-1.882 8.433,-3.769 12.648,-5.652 -5.5,-3.711 -10.996,-7.422 -16.488,-11.145 -2.254,-14.335 -4.332,-28.71 -7.418,-42.898 -0.215,-1.027 -0.437,-2.051 -0.664,-3.074 7.957,-1.781 15.949,-3.238 23.973,-4.68 6.156,-1.078 12.343,-1.887 18.539,-2.605 2.535,-0.309 5.066,-0.618 7.601,-0.922 1.383,3.777 3.469,7.246 5.727,10.562 1.805,2.762 3.59,5.539 5.383,8.309 7.007,-6.465 13.714,-13.258 21.011,-19.406 2.153,-1.754 4.25,-3.618 6.684,-4.981 1.621,-0.656 3.367,0.02 4.973,0.399 3.214,0.843 6.343,2.144 9.011,4.156 5.911,4.203 10.512,9.875 15.414,15.148 1.668,1.832 3.336,3.66 5.004,5.492 2.688,-4.972 5.707,-9.75 8.539,-14.64 2.391,-4.184 3.973,-8.856 4.368,-13.668 0.304,-3.715 0.253,-7.449 0.183,-11.176 -0.129,-4.133 -0.73,-8.316 -2.41,-12.129 -2.324,-5.508 -5.832,-10.484 -10.039,-14.719 -5.176,-5.109 -11.52,-9 -18.363,-11.445 -3.043,-1.031 -6.313,-1.637 -9.485,-1.66 -2.961,-0.07 -5.926,-0.129 -8.886,0.016 -4.317,0.234 -8.649,1.125 -12.536,3.07 -10.726,4.855 -19.679,13.809 -23.988,24.828 -0.098,0.723 -0.398,0.355 -0.734,-0.004 -2.473,-2.312 -6.012,-3.051 -9.305,-2.848 -4.727,0.333 -9.434,0.973 -14.125,1.649 -7.41,1.09 -14.789,2.363 -22.164,3.676 -4.652,0.843 -9.289,1.754 -13.91,2.761 C 452.66,86.277 450.297,79.328 447.395,72.59 440.887,57.004 432.797,41.973 422.34,28.664 416.176,20.887 409.055,13.707 400.547,8.504 391.488,3.016 380.941,-0.164 370.312,0.008 Z m 0.969,35.762 c 4.703,0.168 9.051,2.421 12.754,5.179 6.149,4.61 11.059,10.746 15.317,17.024 0.675,1 1.296,1.98 1.964,3.027 3.543,5.648 6.606,11.582 9.383,17.637 2.531,5.531 4.906,11.351 7.141,17.031 0.949,2.437 1.867,4.887 2.719,7.359 -14.473,4.676 -28.875,9.594 -42.985,15.282 -2.316,0.91 -4.629,1.832 -6.972,2.675 -7.063,-2.722 -14.094,-5.785 -21.266,-8.339 -9.316,-3.446 -18.738,-6.594 -28.172,-9.711 2.336,-7.09 5.059,-14.047 8.055,-20.879 2.453,-5.547 5.199,-11.145 8.219,-16.496 1.507,-2.668 3.027,-5.262 4.816,-7.782 4.172,-5.918 9.203,-11.211 14.605,-15.972 2.993,-2.594 6.457,-4.805 10.383,-5.606 1.324,-0.281 2.684,-0.457 4.039,-0.429 z m -154.789,84.753 c 5.406,0.039 10.86,0.071 16.219,0.309 2.293,0.098 4.699,0.262 6.914,0.445 1.891,0.172 3.816,0.379 5.59,0.602 1.597,0.211 3.058,0.418 4.652,0.668 1.426,0.23 3.004,0.496 4.485,0.765 5.3,0.958 10.722,2.079 16.003,3.223 2.239,0.492 4.481,0.965 6.715,1.481 -3.066,15.234 -5.949,30.511 -7.992,45.914 -10.781,6.8 -21.351,13.937 -31.566,21.566 -7.813,5.762 -15.469,11.731 -22.992,17.867 0.156,-5.894 -0.563,-11.855 -2.458,-17.457 -2.316,-6.629 -6.71,-12.344 -11.824,-17.078 -4.515,-4.098 -9.758,-7.469 -15.511,-9.543 -4.704,-1.656 -9.758,-1.64 -14.68,-1.64 -3.078,-0.012 -6.168,-0.02 -9.215,0.453 -0.391,-5.133 -2.305,-10.036 -2.473,-15.2 -0.297,-4.726 0,-9.628 1.864,-14.039 2.132,-4.507 6.093,-7.882 10.422,-10.214 0.468,-0.27 0.742,-0.422 1.222,-0.672 3.582,-1.911 7.305,-3.59 11.192,-4.782 6.582,-1.933 13.488,-2.273 20.304,-2.507 4.313,-0.133 8.766,-0.133 13.129,-0.161 z m 99.098,18.297 c 3.293,1.121 6.582,2.242 9.867,3.383 -5.5,2.777 -10.98,5.594 -16.418,8.488 0.727,-3.996 1.52,-8.078 2.395,-12.035 0.132,-0.363 0.093,-0.918 0.328,-1.125 1.273,0.43 2.55,0.86 3.828,1.289 z m 115.125,2.317 c 0.633,3.175 1.262,6.351 1.863,9.535 -5.363,-2.856 -10.777,-5.617 -16.183,-8.391 4.531,-1.539 9.074,-3.054 13.636,-4.508 0.227,1.122 0.453,2.243 0.684,3.364 z M 369.34,190.98 c -8.789,0.2 -17.695,1.993 -25.438,6.286 -10.386,5.75 -19,14.574 -24.703,24.968 -2.613,4.895 -4.332,10.239 -5.226,15.707 -0.317,1.582 -0.633,3.168 -0.95,4.75 10.817,8.485 22.266,16.18 34.297,22.84 5.532,3.141 11.133,6.317 16.692,9.473 1.039,0.59 2.074,1.18 3.113,1.769 7.863,-5.929 15.941,-11.625 23.109,-18.406 11.793,-10.734 22.696,-22.394 33.704,-33.918 -3.942,-6.539 -8.055,-13.133 -13.739,-18.324 -7.929,-7.523 -18.172,-12.566 -28.972,-14.25 -3.926,-0.664 -7.911,-0.937 -11.887,-0.895 z"
         style="fill:#ffffff;fill-opacity:1;fill-rule:nonzero;stroke:none"
         id="path550" />
      <path
         d="m 232.527,450.953 c 2.114,-5.941 14.11,-19.414 42.243,-47.453 27.351,-27.254 47.253,-51.465 57,-69.324 3.902,-7.149 4.796,-11.203 4.867,-22 0.078,-12.422 -0.395,-14.063 -7.707,-26.492 -4.285,-7.286 -10.313,-17.567 -13.395,-22.844 -3.082,-5.281 -10.484,-14.871 -16.453,-21.313 l -10.852,-11.715 -12.878,13.18 c -7.082,7.246 -13.7,15.668 -14.704,18.719 -1.003,3.047 -4.304,9.523 -7.332,14.387 -3.027,4.867 -5.058,9.57 -4.511,10.457 0.547,0.886 5.371,1.062 10.718,0.394 8.75,-1.094 9.727,-0.875 9.727,2.192 0,1.875 -2.543,5.797 -5.648,8.718 -7.36,6.918 -10.622,14.852 -10.622,25.813 0,21.203 -3.71,26.043 -30.953,40.379 -14.484,7.625 -22.875,13.824 -40.492,29.906 -12.223,11.156 -22.551,21.27 -22.953,22.469 -0.41,1.234 -2.055,1.676 -3.781,1.012 -2.36,-0.907 -3.055,-3.45 -3.055,-11.172 0,-5.5 -0.434,-10 -0.961,-10 -7.68,0 -51.426,21.113 -66.465,32.074 -4.769,3.476 -9.019,5.972 -9.449,5.547 -1.781,-1.785 5.504,-9.196 15.969,-16.239 6.156,-4.144 15.969,-11.261 21.812,-15.816 5.84,-4.551 17.203,-11.945 25.25,-16.434 14.571,-8.121 22.883,-16.734 22.883,-23.71 0,-3.325 -1.426,-3.907 -14.789,-6.047 -5.867,-0.942 -7.016,-2.02 -9.734,-9.145 l -3.086,-8.078 h -12.188 c -13.449,0 -15.152,1.082 -17.066,10.848 -2.586,13.191 -6.883,23.722 -10.645,26.082 -2.144,1.343 -9.675,2.824 -16.734,3.285 -15.891,1.043 -24.441,5.426 -46.82,24.008 -8.95,7.429 -17.289,13.507 -18.532,13.507 -3.992,0.008 -2.418,-3.253 3.618,-7.48 3.23,-2.266 6.918,-5.551 8.195,-7.297 1.277,-1.75 17.547,-15.91 36.156,-31.465 18.61,-15.554 39.231,-34.09 45.828,-41.183 l 11.996,-12.903 27.481,0.418 c 22.265,0.34 28.562,-0.133 33.195,-2.488 9.805,-4.98 27.957,-20.707 63.617,-55.121 18.918,-18.258 36.551,-34.317 39.18,-35.684 7.336,-3.82 12.707,-1.375 28.801,13.121 9.277,8.356 22.726,17.813 36.219,25.473 l 21.464,12.18 10.356,-7.774 c 11.223,-8.425 28.652,-25.582 52.84,-52.019 14.801,-16.18 15.765,-16.879 26.215,-19.059 5.964,-1.242 12.988,-3.414 15.605,-4.828 2.621,-1.41 15.293,-13.965 28.164,-27.898 22.441,-24.286 42.281,-43.575 50.469,-49.051 3.34,-2.238 4.894,-2.227 11.75,0.09 9.133,3.086 19.906,14.406 36.883,38.761 7.597,10.899 12.886,16.582 17.433,18.735 9.356,4.426 13.34,10.469 16.696,25.328 4.453,19.723 15.152,39.519 33.753,62.465 9.086,11.211 17.957,21.152 19.715,22.093 2.414,1.293 4.461,0.594 8.387,-2.863 2.855,-2.511 10.883,-7.765 17.844,-11.672 10.242,-5.746 14.472,-7.105 22.191,-7.125 8.86,-0.023 10.098,0.536 17.403,7.84 9.191,9.192 46.824,56.082 59.703,74.387 11.832,16.824 21.441,28.726 32.429,40.18 4.985,5.195 8.578,9.933 7.985,10.527 -1.461,1.461 -27.18,-24.746 -36.461,-37.148 -33.91,-45.313 -68.832,-84.961 -74.832,-84.961 -1.004,0 -7.633,6.441 -14.735,14.32 -25.453,28.234 -63.789,52.41 -83.293,52.527 -3.488,0.02 -8.968,0.789 -12.179,1.711 -13.086,3.754 -6.973,-3.777 14.902,-18.351 14.379,-9.579 32.563,-25.305 35.406,-30.614 2.387,-4.465 1.41,-5.976 -19.09,-29.539 -17.398,-20 -20.66,-25.644 -30.8,-53.328 -6.492,-17.73 -7.797,-19.816 -19.758,-31.637 -7.047,-6.957 -18.086,-19.004 -24.535,-26.765 -11.699,-14.078 -20.364,-21.137 -25.949,-21.137 -2.204,0 -2.954,1.719 -2.961,6.777 -0.016,11.325 -3.223,19.782 -21.422,56.493 -9.614,19.386 -18.914,39.504 -20.676,44.699 -2.695,7.945 -5.559,11.492 -18.059,22.351 -14.308,12.438 -22.086,17.614 -23.832,15.864 -0.457,-0.457 0.348,-5.266 1.793,-10.688 3.606,-13.555 3.395,-22.199 -0.64,-25.848 -5.567,-5.039 -9.008,-3.449 -17.938,8.305 -9.836,12.945 -19.269,23.051 -21.512,23.051 -0.847,0 -3.484,-3.66 -5.855,-8.137 -2.375,-4.472 -4.953,-8.133 -5.731,-8.133 -0.781,0 -2.398,3.051 -3.601,6.778 -1.199,3.73 -5.098,13.222 -8.664,21.094 -6.11,13.484 -7.383,14.984 -21.91,25.75 -8.489,6.285 -19.496,12.765 -24.469,14.394 -11.578,3.797 -13.555,5.461 -13.555,11.406 0,9.848 -7.656,33.633 -15.972,49.633 l -8.559,16.453 -18.016,9.699 c -9.906,5.34 -24.523,14.04 -32.476,19.333 -7.953,5.296 -18.121,11.214 -22.598,13.148 -4.473,1.934 -10.523,6.051 -13.441,9.148 -5.864,6.215 -10.629,7.551 -8.817,2.469 z M 371.379,10.496 c -14.086,-0.125 -28.156,6.59 -39.945,19.723 -14.153,15.765 -28.184,42.949 -35.946,69.644 -0.902,3.114 -2.027,5.66 -2.496,5.66 -0.472,0 -6.347,-1.312 -13.054,-2.918 -6.711,-1.601 -20.2,-4.085 -29.977,-5.515 -16.137,-2.363 -19.719,-2.563 -39,-2.129 -18.606,0.414 -22.473,0.789 -31.332,3.027 -24.805,6.282 -41.363,20.422 -45.695,39.032 -1.797,7.73 -1.387,21.003 0.929,29.992 2.895,11.222 2.645,11.023 8.867,7.101 2.93,-1.847 5.774,-3.508 6.321,-3.691 0.621,-0.207 0.336,-3.008 -0.762,-7.488 -2.621,-10.696 -1.844,-22.653 1.926,-29.571 3.648,-6.695 8.566,-11.101 17.289,-15.496 12.875,-6.484 21.016,-7.847 46.902,-7.844 24.778,0.004 32.438,0.868 59.239,6.68 10.23,2.219 14.73,3.602 14.543,4.469 -3.524,16.601 -7.348,37.223 -8.676,46.785 l -1.703,12.234 -9.485,6.036 c -26.445,16.824 -61.039,44.406 -82.058,65.425 -19.965,19.965 -34.532,39.012 -43.618,56.637 l 0.938,0.016 c 7.484,0.113 12.461,0.082 16.547,-0.012 8.828,-14.785 22.074,-31.848 34.769,-44.137 l 4.93,-4.773 12.719,10.652 c 0.746,0.629 1.539,1.188 2.289,1.809 3.308,-3.098 7.187,-6.813 10.949,-10.403 -7.898,-6.472 -14.348,-12.023 -14.348,-12.753 0,-0.981 14.266,-13.18 27.254,-23.309 10.172,-7.93 36.52,-26.301 37.016,-25.805 0.141,0.141 -0.137,6.028 -0.621,13.082 -0.067,1.012 -0.094,2.727 -0.156,3.895 0.199,-0.125 0.703,-0.567 0.855,-0.649 4.957,-2.578 9.453,-3.039 14.18,-1.75 0.394,-7.386 0.847,-14.558 1.527,-20.277 l 0.586,-4.953 8.555,-5.074 c 18.465,-10.95 66.156,-34.883 69.511,-34.883 2.075,0 55.391,26.812 67.047,33.715 l 10.305,6.101 c 1.883,-0.609 3.777,-1.172 6.23,-1.683 5.372,-1.118 11.028,-2.957 12.918,-3.848 -1.023,-0.668 -4.21,-2.898 -4.562,-3.102 -0.078,-0.043 -1.109,-6.523 -2.289,-14.398 -2.258,-15.078 -4.836,-28.977 -7.274,-39.227 l -1.461,-6.148 3.61,-1.027 c 7.031,-2.008 32.375,-6.871 41.766,-8.016 l 9.523,-1.164 0.437,-7.012 c 0.239,-3.855 0.286,-7.199 0.102,-7.422 -1.047,-1.296 -44.121,5.758 -57.211,9.371 -1.902,0.524 -2.48,-0.601 -6.73,-13.082 -11.762,-34.527 -29.77,-62.636 -47.297,-73.824 -7.977,-5.09 -16.434,-7.625 -24.883,-7.703 z m 1.367,14.828 c 15.184,1.114 30.785,15.789 44.078,41.781 5.848,11.43 14.723,33.692 15.774,39.563 l 0.586,3.297 -17.559,5.707 c -9.66,3.14 -23.559,8.137 -30.887,11.098 -7.332,2.964 -13.777,5.359 -14.32,5.316 -0.543,-0.043 -6.316,-2.297 -12.832,-5.012 -6.52,-2.711 -19.848,-7.582 -29.621,-10.824 -9.777,-3.242 -18.317,-6.074 -18.981,-6.297 -1.777,-0.586 6.481,-24.055 13.543,-38.496 7.801,-15.945 12.715,-23.187 22.164,-32.652 8.317,-8.332 13.805,-11.668 21.582,-13.121 2.145,-0.403 4.305,-0.52 6.473,-0.36 z m 183.809,45.149 c -7.203,0 -9.219,0.394 -14.004,2.746 -11.985,5.883 -19.664,17.59 -19.703,30.031 -0.024,8.09 0.629,11.148 3.644,17.082 0.375,0.734 0.895,1.356 1.317,2.051 7.691,-7.348 14.218,-13.113 18.363,-15.891 2.387,-1.597 4.668,-3.035 9.035,-3 2.563,0.02 6.164,0.985 9.672,2.168 6.789,2.297 13.535,7.617 21.199,16.176 0.695,-1.156 1.449,-2.356 1.918,-3.359 2.207,-4.707 2.602,-6.899 2.602,-14.434 0,-7.277 -0.41,-9.723 -2.266,-13.488 -3.637,-7.383 -9.477,-13.246 -16.77,-16.836 -5.89,-2.899 -7.492,-3.246 -15.007,-3.246 z m -251.867,53.808 c 1.25,0 37.757,12.52 42.527,14.582 l 4.445,1.922 -18.762,9.406 c -10.316,5.168 -22.71,11.676 -27.539,14.454 -4.828,2.781 -9.097,5.058 -9.488,5.058 -0.793,0 -0.812,0.172 2.008,-16.293 2.613,-15.269 5.851,-29.129 6.809,-29.129 z m 133.121,0.414 c 0.621,0.625 7.066,33.239 7.734,39.141 0.367,3.23 0.273,5.824 -0.203,5.773 -0.481,-0.054 -4.203,-2.074 -8.274,-4.496 -4.074,-2.418 -16.23,-8.847 -27.011,-14.281 -10.785,-5.434 -19.434,-10.055 -19.219,-10.27 1.512,-1.511 46.223,-16.613 46.973,-15.867 z M 170.48,178.129 c -8.285,-0.031 -10.027,0.281 -14.933,2.691 -6.609,3.246 -14.031,10.848 -16.879,17.282 -2.789,6.308 -3.402,16.222 -1.422,23.035 3.086,10.617 9.652,17.832 20.32,22.336 7.485,3.16 19.887,2.839 27.246,-0.7 7.083,-3.406 14.641,-11.496 17.258,-18.476 2.973,-7.926 2.551,-20.32 -0.933,-27.418 -3.086,-6.281 -9.309,-12.492 -16.004,-15.973 -4.656,-2.422 -6.363,-2.742 -14.653,-2.777 z m 199.891,23.34 c -5.133,0.008 -10.262,0.734 -14.996,2.222 -11.879,3.731 -24.191,15.594 -28.945,27.891 -0.778,2.016 -1.368,4.32 -1.828,6.73 7.421,5.618 15.992,11.329 24.793,16.325 l 16.937,9.613 6.203,-4.652 c 8.555,-6.426 21.235,-18.567 38.176,-36.481 -3.945,-6.258 -9.387,-11.777 -16.508,-15.836 -6.723,-3.828 -15.277,-5.824 -23.832,-5.812 z"
         style="fill:#000000;fill-opacity:1;fill-rule:nonzero;stroke:none"
         id="path552" />
    </g>
  </g>
</svg>
